<svg width="1600" height="479" xmlns="http://www.w3.org/2000/svg" preserveAspectRatio="xMidYMid meet" version="1.0">
 <metadata>Created by potrace 1.16, written by Peter Selinger 2001-2019</metadata>

 <g>
  <title>Layer 1</title>
  <g id="svg_1">
   <path fill="#bd965c" id="svg_2" d="m193.2861,62.09999c-32.1,6 -60.4,21.8 -81.1,45.2c-10.2,11.5 -15.6,19.8 -22.3,33.9c-10.1,21.3 -12.6,31.5 -13.3,55.9c-0.4,13.8 -0.2,19.8 1.1,27.5c2,11.8 8.1,30.5 13,40c5.4,10.5 4.2,9.8 13.2,7.9c4.4,-1 8,-1.9 8.2,-2c0.1,-0.1 -1.3,-2.9 -3.3,-6.2c-17.5,-29.5 -21.4,-67.6 -10.3,-102.3c9.7,-30.3 32.5,-57 61.4,-71.7c20.2,-10.3 34.8,-13.8 57.9,-13.8c11.7,0 18.3,0.5 24.5,1.8c47.8,10.2 84.3,44.6 96.9,91.1c8.3,30.6 3.2,69.1 -12.6,94.9c-1.9,3.2 -3.3,6 -3.2,6.1c0.5,0.4 14.4,3.6 15.7,3.6c1.5,0 9.9,-17.8 13.7,-29.2c5,-15 6.8,-29.5 6.2,-48.8c-0.8,-22.8 -4.9,-38.6 -15.4,-59.3c-24,-47 -73.6,-77 -126.7,-76.6c-8.3,0.1 -16.9,0.8 -23.6,2z"/>
   <path fill="#bd965c" id="svg_3" d="m1095.76471,64.89999c0,0.5 16.4,47.2 36.5,103.8c22.4,63.1 47.6,131.7 65.3,177.5l28.7,74.8l33.8,0c31.9,0 33.9,-0.1 33.2,-1.8c-1.2,-3.1 -122.5,-335.2 -128.7,-352.50001l-1,-2.7l-33.9,0c-20.3,0 -33.9,0.4 -33.9,0.9l0,0.00001z"/>
   <path fill="#bd965c" id="svg_4" d="m1486.76471,243l0,179l31,0l31,0l0,-179l0,-179l-31,0l-31,0l0,179z"/>
   <path fill="#bd965c" id="svg_5" d="m573.7647,243l0,178l31,0l31,0l0,-42.3l0.1,-42.2l125.5,-135c69.1,-74.3 125.8,-135.3 126,-135.8c0.3,-0.4 -17.9,-0.7 -40.5,-0.7l-41,0l-84.8,87.6l-84.8,87.6l-0.3,-87.6l-0.2,-87.6l-31,0l-31,0l0,178z"/>
   <path fill="#bd965c" id="svg_6" d="m1060.96471,148c-0.5,1.4 -25.5,63.2 -55.6,137.4c-30,74.1 -54.6,135 -54.6,135.2c0,0.2 14.8,0.4 32.9,0.4l32.8,0l38.7,-94.4c21.2,-52 38.6,-95 38.6,-95.7c0,-0.9 -23.6,-64.4 -31,-83.4c-0.8,-1.9 -0.8,-1.9 -1.8,0.5z"/>
   <path fill="#bd965c" id="svg_7" d="m158.0861,208c-9.8,5.3 -11.8,20 -4,28.4c12,12.8 34,1.5 30.8,-15.8c-0.8,-4.1 -4.1,-9.2 -7.9,-12c-4,-3 -14,-3.3 -18.9,-0.6z"/>
   <path fill="#bd965c" id="svg_8" d="m260.3861,207.8c-13.4,6.8 -13.2,26.2 0.3,32.3c12.7,5.8 25.6,-2.6 25.6,-16.6c0,-5.3 -1.6,-8.8 -5.7,-12.7c-5.3,-5 -13.8,-6.3 -20.2,-3z"/>
   <path fill="#bd965c" id="svg_9" d="m746.1647,287.5c-11.5,12.5 -20.8,23.3 -20.8,24c0.1,0.7 20.1,25.7 44.4,55.4l44.2,54.1l38.1,0l38,0l-2,-2.3c-1.1,-1.2 -28.5,-36 -60.8,-77.2c-32.3,-41.3 -59.1,-75.4 -59.5,-75.8c-0.4,-0.5 -10.2,9.3 -21.6,21.8z"/>
   <path fill="#bd965c" id="svg_10" d="m125.2861,284.5c-21.3,2.9 -42.3,9.2 -64.6,19.3l-12.9,5.8l-0.3,14.8c-0.2,13.5 -0.1,14.8 1.4,14.2c0.9,-0.4 4.5,-1.2 8,-1.8l6.4,-1.3l0,-7.6l0,-7.7l8.5,-3.6c44.5,-19.1 87.6,-22.5 130.3,-10.4l7.2,2.1l0,57.9l0,57.8l8,0l8,0l0,-57.5c0,-53.7 0.1,-57.5 1.8,-58.3c0.9,-0.5 5.5,-1.9 10.2,-3c43.1,-10.8 83.4,-7.1 126.5,11.4l8.5,3.6l0,7.7l0,7.6l5.8,1.2c3.1,0.7 6.7,1.5 8,1.9l2.3,0.6l-0.3,-14.8l-0.3,-14.8l-12.8,-5.8c-31.9,-14.4 -59.8,-20.8 -91.6,-20.8c-12.4,0 -31,1.7 -38.6,3.4c-1.1,0.3 -7.7,1.9 -14.6,3.6l-12.7,3.2l-7.8,-2.2c-21.4,-5.8 -37.1,-8 -58.4,-7.9c-9.1,0.1 -20.8,0.7 -26,1.4z"/>
   <path fill="#bd965c" id="svg_11" d="m53.8861,354.4c-7,2.9 -15.3,10.6 -18.5,17.2c-5.1,10.1 -5,22.8 0,33c3.4,6.7 12.3,14.6 19.4,17.3c4.9,1.8 7.5,2.2 14,1.9c14.5,-0.7 26.2,-8.4 32.2,-21.3c2.3,-5.1 2.8,-7.3 2.7,-14.5c0,-7.2 -0.4,-9.5 -2.8,-14.6c-3.5,-7.7 -10.3,-14.5 -18.1,-18.1c-8.7,-4 -20.6,-4.4 -28.9,-0.9zm24.7,16.6c5.5,3.3 9,9.9 9,16.9c0,6.8 -1.9,10.7 -7.4,15.5c-6.7,5.6 -16.4,6.2 -23.9,1.2c-4.3,-2.8 -9,-11.3 -9,-16.1c0,-8.2 4.9,-15.7 12.5,-19.2c4.3,-2 14.1,-1.1 18.8,1.7z"/>
   <path fill="#bd965c" id="svg_12" d="m357.1861,353.5c-10.9,4 -18.1,10.4 -22.6,20c-2.3,5.1 -2.8,7.3 -2.7,14.5c0,7.2 0.4,9.5 2.8,14.6c5.7,12.7 17.7,20.6 32.1,21.2c6.5,0.3 9.2,-0.1 14,-1.9c7.1,-2.7 16,-10.6 19.4,-17.3c5.1,-10.3 5.1,-22.9 0,-33.2c-3.4,-6.6 -12.3,-14.6 -19.2,-17.2c-6.7,-2.5 -18,-2.9 -23.8,-0.7zm22.4,18.1c4.8,3.3 7.7,8.6 8.5,15c0.6,5.9 -3.5,14.5 -8.8,18c-7.5,5 -17.7,4.4 -24.1,-1.3c-5.5,-4.9 -7.2,-8.7 -7.2,-15.4c0,-4.3 0.6,-6.7 2.6,-10.1c4.2,-7.3 9.5,-9.9 19,-9.5c4.4,0.3 6.7,1 10,3.3z"/>
  </g>
 </g>
</svg>